<?xml version="1.0" encoding="utf-8"?>
<!-- Generator: Adobe Illustrator 19.0.0, SVG Export Plug-In . SVG Version: 6.00 Build 0)  -->
<svg version="1.1" id="eksisozluk" xmlns="http://www.w3.org/2000/svg" xmlns:xlink="http://www.w3.org/1999/xlink" x="0px" y="0px"
	 viewBox="-233 385 144.2 24" style="enable-background:new -233 385 144.2 24;" xml:space="preserve">
<style type="text/css">
	.st0{fill:#B84C4C;}
	.st1{fill:#999999;}
</style>
<title>eksisozluk_logo</title>
<g id="eksisozluk-2">
	<g id="greendrop">
		<path class="st0" d="M-225.6,407.1c-4.1,0-7.4-3.3-7.4-7.4c0-4,7.4-13.3,7.4-13.3s7.4,9.3,7.4,13.3
			C-218.2,403.8-221.5,407.1-225.6,407.1C-225.5,407.1-225.5,407.1-225.6,407.1z"/>
	</g>
	<g id="type">
		<g id="eksi">
			<path id="e" class="st1" d="M-208.3,399.6v0.1c0,2.2,1.1,3.4,3,3.4c1.3,0,2.6-0.5,3.6-1.4l1.4,2.2c-1.5,1.3-3.4,2-5.3,2
				c-4,0-6.7-2.9-6.7-7.3c0-2.5,0.5-4.2,1.8-5.6c1.1-1.3,2.7-2,4.4-1.9c1.5-0.1,3,0.5,4.1,1.5c1.3,1.3,1.9,3.2,1.9,6.2v0.9
				L-208.3,399.6L-208.3,399.6z M-204,396.7c0.1-0.7-0.1-1.5-0.4-2.1c-0.3-0.6-1-0.9-1.6-0.8c-1.4,0-2.2,1.1-2.2,3.1v0.1h4.3
				L-204,396.7L-204,396.7z"/>
			<path id="k" class="st1" d="M-197.6,405.5v-15.9c0-0.6,0-1.2,0-1.8c0-0.6-0.1-1.1-0.2-1.9l3.7-0.9c0.1,0.6,0.1,1.2,0.2,1.9
				c0,0.8,0.1,1.7,0.1,2.7v15.9H-197.6z M-189.1,405.5l-4.7-8l3.6-6.1h4.4l-4.5,5.9l5.5,8.2H-189.1L-189.1,405.5z"/>
			<path id="s" class="st1" d="M-178.8,405.9c-2-0.1-4-0.6-5.7-1.6l1.3-2.7c1.1,0.7,3.1,1.6,4.7,1.6c0.9,0.1,1.8-0.6,1.9-1.6l0,0
				c0-1-0.7-1.5-2.2-1.7l-1.7-0.3c-1-0.2-1.9-0.7-2.6-1.4c-0.5-0.7-0.8-1.6-0.8-2.5c0-2.8,2.2-4.6,5.4-4.6c1.8,0,3.5,0.5,5,1.3
				l-1.2,2.5c-1-0.6-2.2-1-3.4-1c-1.1,0-1.8,0.6-1.8,1.4c0,0.7,0.5,1.1,1.8,1.4l1.7,0.4c1.7,0.4,2.3,1,2.8,1.6
				c0.5,0.7,0.8,1.5,0.8,2.4C-172.8,403.9-175.2,405.9-178.8,405.9z"/>
			<path id="diacritic" class="st1" d="M-180,409l-0.3-1.4l4.2-1l0.4,2L-180,409z"/>
			<path id="ı" class="st1" d="M-170.3,405.5v-13.9l3.7-0.6v14.4h-3.7V405.5z"/>
			<path id="dot" class="st1" d="M-168.4,389.8c-1.3,0-2.3-1-2.3-2.3s1-2.3,2.3-2.3c1.2,0,2.2,1,2.2,2.3l0,0
				C-166.2,388.8-167.2,389.8-168.4,389.8z"/>
		</g>
		<g id="sozluk">
			<path class="st0" d="M-158.6,405.9c-2-0.1-4-0.6-5.7-1.6l1.3-2.7c1.1,0.7,3.1,1.6,4.7,1.6c0.9,0.1,1.8-0.6,1.9-1.6l0,0
				c0-1-0.7-1.5-2.2-1.7l-1.7-0.3c-1-0.2-1.9-0.7-2.6-1.4c-0.5-0.7-0.8-1.6-0.8-2.5c0-2.8,2.2-4.6,5.4-4.6c1.8,0,3.5,0.5,5,1.3
				l-1.2,2.5c-1-0.6-2.2-1-3.4-1c-1.1,0-1.8,0.6-1.8,1.4c0,0.7,0.5,1.1,1.8,1.4l1.7,0.4c1.7,0.4,2.3,1,2.8,1.6
				c0.5,0.7,0.8,1.5,0.8,2.4C-152.6,403.9-155,405.9-158.6,405.9z"/>
			<path class="st0" d="M-139.9,403.8c-1.2,1.3-2.9,2.1-4.6,2c-3.8,0-6.3-2.9-6.3-7.3s2.5-7.4,6.3-7.4c1.8-0.1,3.6,0.7,4.8,2.1
				c1.1,1.3,1.6,2.9,1.6,5.2C-138.1,400.8-138.7,402.5-139.9,403.8z M-147.4,390.1c-1.2,0-2.1-1-2.1-2.1c0-1.2,1-2.1,2.1-2.1
				c1.2,0,2.1,1,2.1,2.1C-145.3,389.2-146.3,390.1-147.4,390.1L-147.4,390.1z M-142.9,394.6c-0.7-0.9-2-1-2.8-0.3
				c-0.3,0.3-0.5,0.6-0.7,1c-0.5,2.2-0.5,4.5,0.1,6.7c0.3,0.7,1.1,1.2,1.9,1.1c1.6,0,2.3-1.4,2.3-4.8
				C-142.1,396.5-142.4,395.2-142.9,394.6z M-141.6,390.1c-1.2,0-2.1-1-2.1-2.1c0-1.2,1-2.1,2.1-2.1c1.2,0,2.1,1,2.1,2.1
				C-139.5,389.2-140.5,390.1-141.6,390.1L-141.6,390.1z"/>
			<path class="st0" d="M-126.3,405.5h-10.4v-2.3l6.6-9.2h-6.1v-2.6h10.5v2.5l-6.2,9h6.5L-126.3,405.5z"/>
			<path class="st0" d="M-119.1,405.8c-1.6,0-2.8-0.7-3.3-1.9c-0.3-0.7-0.3-1.1-0.3-3.2v-10.5c0-1.4,0-2.8-0.2-4.2l3.8-0.9
				c0.2,1.2,0.2,2.4,0.2,3.7v11c0,2.4,0,2.8,0.2,3.1c0.2,0.3,0.4,0.4,0.7,0.4c0.1,0,0.3,0,0.4-0.1l0.6,2.2
				C-117.6,405.7-118.3,405.8-119.1,405.8z"/>
			<path class="st0" d="M-106.4,405.9c-0.5-0.3-0.9-0.8-1.1-1.4c-1,0.9-2.3,1.4-3.7,1.3c-2,0-3.7-0.9-4.2-2.3
				c-0.3-0.9-0.4-1.9-0.3-2.8v-9l3.6-0.7v9c-0.1,0.8,0,1.6,0.3,2.3c0.3,0.4,0.8,0.7,1.3,0.7c0.9,0,1.8-0.5,2.3-1.3v-9.9l3.5-0.7
				v10.8c0,0.9,0.3,1.8,0.9,2.6L-106.4,405.9z M-113.2,390.1c-1.2,0-2.1-1-2.1-2.1c0-1.2,1-2.1,2.1-2.1c1.2,0,2.1,1,2.1,2.1
				C-111,389.2-112,390.1-113.2,390.1z M-107.2,390.1c-1.2,0-2.1-1-2.1-2.1c0-1.2,1-2.1,2.1-2.1c1.2,0,2.1,1,2.1,2.1
				C-105.1,389.2-106,390.1-107.2,390.1L-107.2,390.1z"/>
			<path class="st0" d="M-101.6,405.5v-15.9c0-1.2-0.1-2.4-0.2-3.7l3.7-0.9c0.2,1.5,0.3,3.1,0.2,4.6v15.9H-101.6L-101.6,405.5z
				 M-93.1,405.5l-4.7-8l3.6-6.1h4.4l-4.5,5.9l5.5,8.2H-93.1L-93.1,405.5z"/>
		</g>
	</g>
</g>
</svg>
